<svg role="img" xmlns="http://www.w3.org/2000/svg" xmlns:xlink="http://www.w3.org/1999/xlink" viewBox="0 0 480 480"><defs><path id="reflux-__lottie_element_12" fill-opacity="0" stroke="#FBF8EB" stroke-miterlimit="10" stroke-width="6" d="M-262.6-4.48c14.6 0 14.6 8.96 29.2 8.96s14.6-8.96 29.2-8.96 14.6 8.96 29.2 8.96 14.6-8.96 29.2-8.96 14.6 8.96 29.2 8.96 14.6-8.96 29.2-8.96h-.2c14.6 0 14.6 8.96 29.2 8.96s14.6-8.96 29.2-8.96S-14.6 4.48 0 4.48s14.6-8.96 29.2-8.96 14.6 8.96 29.2 8.96S73-4.48 87.6-4.48h-.2c14.6 0 14.6 8.96 29.2 8.96s14.6-8.96 29.2-8.96 14.6 8.96 29.2 8.96 14.6-8.96 29.2-8.96 14.6 8.96 29.2 8.96 14.6-8.96 29.2-8.96" style="display:block" transform="translate(416.27 313.17)"/><path id="reflux-__lottie_element_18" fill="#FFF" d="M-117 14s-3.5 12 10.5 26 89 18 147-15 94.83-101.92 93.86-101.91c-12.36.16-28.11 13.91-39.7 6.3-21.37-14-35.9 2.36-47.93 2.94-8.7.41-14.98-7.43-27.17-9.73C11.07-79 .25-68.7-9-67.94c-9.02-1.04-19.31-9.44-27.23-9.46-11.56-.03-7.28.15-9.47 1.65-3.13 2.15-4.56 5.25-6.28 6.3-.46.64-9.53 15.95-9.53 15.95s28 30-.1 60.4C-71.05 17.15-95.5 25-117 14" style="display:block" transform="translate(269.5 386)"/><mask id="reflux-__lottie_element_12_1" mask-type="alpha"><use xlink:href="#__lottie_element_12"/></mask><mask id="reflux-__lottie_element_18_1" mask-type="alpha"><use xlink:href="#__lottie_element_18"/></mask><clipPath id="reflux-__lottie_element_2"><path d="M0 0h480v480H0z"/></clipPath></defs><g clip-path="url(#reflux-__lottie_element_2)"><g mask="url(#reflux-__lottie_element_18_1)" style="display:block"><path fill="#383854" d="M176 340.5a4.4 4.4 0 0 1-2.5-.76 4.5 4.5 0 1 1 2.5.76m338.4-4.5a4.5 4.5 0 1 1 9 0 4.5 4.5 0 0 1-9 0m-38.1 0a4.5 4.5 0 1 1 9 0 4.5 4.5 0 0 1-9 0m-38.1 0a4.5 4.5 0 1 1 9 0 4.5 4.5 0 0 1-9 0m-38.1 0a4.5 4.5 0 1 1 9 0 4.5 4.5 0 0 1-9 0m-38.1 0a4.5 4.5 0 1 1 9.01.01A4.5 4.5 0 0 1 362 336m-38.1 0a4.5 4.5 0 1 1 9 0 4.5 4.5 0 0 1-9 0m-38.1 0a4.5 4.5 0 1 1 9 0 4.5 4.5 0 0 1-9 0m-38.1 0a4.5 4.5 0 1 1 9 0 4.5 4.5 0 0 1-9 0m-38.1 0a4.5 4.5 0 1 1 9 0 4.5 4.5 0 0 1-9 0m347.4 4.5a4.4 4.4 0 0 1-2.5-.76 4.6 4.6 0 0 1-2-3.74 4.4 4.4 0 0 1 .76-2.5 4.6 4.6 0 0 1 2.86-1.91 4.4 4.4 0 0 1 2.6.25q.4.18.78.42a4.49 4.49 0 0 1-2.5 8.24M156 368a4.4 4.4 0 0 1-2.5-.76 4.5 4.5 0 1 1 2.5.76m338.4-4.5a4.5 4.5 0 1 1 9.01.01 4.5 4.5 0 0 1-9.01-.01m-38.1 0a4.5 4.5 0 1 1 9 0 4.5 4.5 0 0 1-9 0m-38.1 0a4.5 4.5 0 1 1 9 0 4.5 4.5 0 0 1-9 0m-38.1 0a4.5 4.5 0 1 1 9 0 4.5 4.5 0 0 1-9 0m-38.1 0a4.5 4.5 0 1 1 9 0 4.5 4.5 0 0 1-9 0m-38.1 0a4.5 4.5 0 1 1 9 0 4.5 4.5 0 0 1-9 0m-38.1 0a4.5 4.5 0 1 1 9.01.01 4.5 4.5 0 0 1-9.01-.01m-38.1 0a4.5 4.5 0 1 1 9.01.01 4.5 4.5 0 0 1-9.01-.01m-38.1 0a4.5 4.5 0 1 1 9.01.01 4.5 4.5 0 0 1-9.01-.01M537 368a4.52 4.52 0 0 1-3.74-7q.24-.37.56-.68a4.51 4.51 0 0 1 7.68 3.18 4.5 4.5 0 0 1-4.5 4.5m-361 27.5a4.4 4.4 0 0 1-2.5-.76 4.5 4.5 0 1 1 2.5.76m338.4-4.5a4.5 4.5 0 1 1 9 0 4.5 4.5 0 0 1-9 0m-38.1 0a4.5 4.5 0 1 1 9 0 4.5 4.5 0 0 1-9 0m-38.1 0a4.5 4.5 0 1 1 9 0 4.5 4.5 0 0 1-9 0m-38.1 0a4.5 4.5 0 1 1 9 0 4.5 4.5 0 0 1-9 0m-38.1 0a4.5 4.5 0 1 1 9.01.01A4.5 4.5 0 0 1 362 391m-38.1 0a4.5 4.5 0 1 1 9 0 4.5 4.5 0 0 1-9 0m-38.1 0a4.5 4.5 0 1 1 9 0 4.5 4.5 0 0 1-9 0m-38.1 0a4.5 4.5 0 1 1 9 0 4.5 4.5 0 0 1-9 0m-38.1 0a4.5 4.5 0 1 1 9 0 4.5 4.5 0 0 1-9 0m347.4 4.5a4.4 4.4 0 0 1-2.5-.76 4.6 4.6 0 0 1-2-3.74 4.5 4.5 0 1 1 4.5 4.5M156 423a4.4 4.4 0 0 1-2.5-.76 4.5 4.5 0 1 1 2.5.76m338.4-4.5a4.5 4.5 0 1 1 9.01.01 4.5 4.5 0 0 1-9.01-.01m-38.1 0a4.5 4.5 0 1 1 9 0 4.5 4.5 0 0 1-9 0m-38.1 0a4.5 4.5 0 1 1 9 0 4.5 4.5 0 0 1-9 0m-38.1 0a4.5 4.5 0 1 1 9 0 4.5 4.5 0 0 1-9 0m-38.1 0a4.5 4.5 0 1 1 9 0 4.5 4.5 0 0 1-9 0m-38.1 0a4.5 4.5 0 1 1 9 0 4.5 4.5 0 0 1-9 0m-38.1 0a4.5 4.5 0 1 1 9.01.01 4.5 4.5 0 0 1-9.01-.01m-38.1 0a4.5 4.5 0 1 1 9.01.01 4.5 4.5 0 0 1-9.01-.01m-38.1 0a4.5 4.5 0 1 1 9.01.01 4.5 4.5 0 0 1-9.01-.01M537 423a4.52 4.52 0 0 1-3.74-7q.24-.37.56-.68a4.51 4.51 0 0 1 7.68 3.18 4.5 4.5 0 0 1-4.5 4.5m-361 27.5a4.4 4.4 0 0 1-2.5-.76 4.5 4.5 0 1 1 2.5.76m338.4-4.5a4.5 4.5 0 1 1 9 0 4.5 4.5 0 0 1-9 0m-38.1 0a4.5 4.5 0 1 1 9 0 4.5 4.5 0 0 1-9 0m-38.1 0a4.5 4.5 0 1 1 9 0 4.5 4.5 0 0 1-9 0m-38.1 0a4.5 4.5 0 1 1 9 0 4.5 4.5 0 0 1-9 0m-38.1 0a4.5 4.5 0 1 1 9.01.01A4.5 4.5 0 0 1 362 446m-38.1 0a4.5 4.5 0 1 1 9 0 4.5 4.5 0 0 1-9 0m-38.1 0a4.5 4.5 0 1 1 9 0 4.5 4.5 0 0 1-9 0m-38.1 0a4.5 4.5 0 1 1 9 0 4.5 4.5 0 0 1-9 0m-38.1 0a4.5 4.5 0 1 1 9 0 4.5 4.5 0 0 1-9 0m347.4 4.5a4.4 4.4 0 0 1-2.5-.76 4.6 4.6 0 0 1-2-3.74 4.4 4.4 0 0 1 .76-2.5q.24-.37.56-.68a4.5 4.5 0 1 1 3.18 7.68M156 478a4.4 4.4 0 0 1-2.5-.76 4.5 4.5 0 1 1 2.5.76m338.4-4.5a4.5 4.5 0 1 1 8.99-.01 4.5 4.5 0 0 1-8.99.01m-38.1 0a4.5 4.5 0 1 1 8.99-.01 4.5 4.5 0 0 1-8.99.01m-38.1 0a4.5 4.5 0 1 1 8.99-.01 4.5 4.5 0 0 1-8.99.01m-38.1 0a4.5 4.5 0 1 1 8.99-.01 4.5 4.5 0 0 1-8.99.01m-38.1 0a4.5 4.5 0 1 1 8.99-.01 4.5 4.5 0 0 1-8.99.01m-38.1 0a4.5 4.5 0 1 1 9 0 4.5 4.5 0 0 1-9 0m-38.1 0a4.5 4.5 0 1 1 9 0 4.5 4.5 0 0 1-9 0m-38.1 0a4.5 4.5 0 1 1 8.99-.01 4.5 4.5 0 0 1-8.99.01m-38.1 0a4.5 4.5 0 1 1 8.99-.01 4.5 4.5 0 0 1-8.99.01M537 478a4.53 4.53 0 0 1-4.5-4.5 4.4 4.4 0 0 1 .76-2.5q.24-.37.56-.68a4.51 4.51 0 0 1 7.68 3.18 4.5 4.5 0 0 1-4.5 4.5m-361 27.5a4.4 4.4 0 0 1-2.5-.76 4.5 4.5 0 1 1 2.5.76m338.4-4.5a4.5 4.5 0 1 1 9 0 4.5 4.5 0 0 1-9 0m-38.1 0a4.5 4.5 0 1 1 9 0 4.5 4.5 0 0 1-9 0m-38.1 0a4.5 4.5 0 1 1 9 0 4.5 4.5 0 0 1-9 0m-38.1 0a4.5 4.5 0 1 1 9 0 4.5 4.5 0 0 1-9 0m-38.1 0a4.5 4.5 0 1 1 9 0 4.5 4.5 0 0 1-9 0m-38.1 0a4.5 4.5 0 1 1 9 0 4.5 4.5 0 0 1-9 0m-38.1 0a4.5 4.5 0 1 1 9 0 4.5 4.5 0 0 1-9 0m-38.1 0a4.5 4.5 0 1 1 9 0 4.5 4.5 0 0 1-9 0m-38.1 0a4.5 4.5 0 1 1 9.01.01 4.5 4.5 0 0 1-9.01-.01m347.4 4.5a4.4 4.4 0 0 1-2.5-.76 4.5 4.5 0 1 1 2.5.76"/></g><g mask="url(#reflux-__lottie_element_12_1)" style="display:block"><path fill="#FFF" d="M231.5 296.5s-1.57 6.59-6.9 17.54C219.24 325 210.5 334 210.5 334h177.75s6.85-8.44 12.3-18.85c5.45-10.4 7.2-17.15 7.2-17.15z"/></g><path fill="#DA4378" d="M227.32 109.73c.47 10.52-3.6 12.03-4.95 21.27-1.45 9.86 6.85 15.46 7.09 22.55.37 10.9-5.34 12.06-3.14 18.8 1.79 5.46 9.04 6.93 12.01 11.84 4.03 6.72.75 8.73 4.76 12.85 3.5 3.6 5.07 3 10.47 3.63 4.62.96 4.3 2.81 8.23 5.46s5.81 2.84 9.9 2.05c4.29-.68 7.35-10.06 1.68-13.2-1.91-1.26-6.15-.35-10.1-5.01-4.36-5.3-10.32-6.13-14.5-10.47-9.52-9.67-13.24-17.3-14-30.9-.77-13.59 1.66-27.14 2.6-40.72a187 187 0 0 0-.44-31.07c-.17-1.8-.15-5.97-2.56-3.21-1.35 1.53-3.5 1.2-3.54 3.44-.08 4.34-5.9 13.6-5.97 16.8-.23 9.89 2.18 9.8 2.46 15.89m-51.81 64.17c3.52 10.81 10.49 11.1 17.14 21.35 5.98 9.2 3.57 20.94 10.72 29.28 6.62 7.72 20.84 10.23 27.85 15.74 9.52 7.48 10.13 18.13 21 20.36 14.02 2.87 14.52 17.61 2.77 19.94-5.66 1.13-13.25-7.08-19.56-8.35-3.06-.61 1.31 10.77-2.57 16.4-8.03 11.64-13.36 12.88-18.31 18.31 3.8-10.37 12.7-44.93 9.75-47.55-3.67-3.25-11.55-7.63-17.21-13.91-13.71-15.22-30-34.02-37.43-53.1a104 104 0 0 1-6.93-43.1c.12-2.34-.25-6.45.79-8.56.68-1.39 3.47 2.04 3.04-.02-1.16-5.63 6.83 1.36 7.9 7.78 2.04 12.28-1.1 18.84 1.05 25.43" style="display:block"/><g style="display:block"><path fill="#71BBE8" d="M160.98 87.7h-24.05v-10h24.05z"/><path fill="none" stroke="#5592BE" stroke-linecap="round" stroke-linejoin="round" stroke-width="10" d="M133.4 239.03h19.24c12 0 23.18 6.06 29.73 16.12l8.35 12.81c6.86 10.54 18.15 16.9 30.73 16.9m-120.02 83.72v83.2"/><path fill="#5592BE" d="M132.26 305.4a5 5 0 0 1-5-5V40.71a5 5 0 1 1 10 0v259.67a5 5 0 0 1-5 5"/><path fill="none" stroke="#383853" stroke-linecap="round" stroke-linejoin="round" stroke-width="10" d="M250.28 269.81a133.6 133.6 0 0 1-55.73-40.56A133.5 133.5 0 0 1 165 145.62V40.72m70 0v104.9c0 23.47 13.23 44.67 33.15 55.5M207.64 344.4a189 189 0 0 0-20.04-16.51c-35.76-25.5-75.88-34.64-116.03-26.43a35 35 0 0 0 14 68.58c20.37-4.16 40.5.47 59.83 13.75 5.3 3.64 9.9 7.5 13.7 11.06"/><path fill="none" stroke="#383853" stroke-linejoin="round" stroke-width="10" d="M194.03 332.7c10-9.88 18-21.7 23.25-35.02a221 221 0 0 0 11.3-38.6"/><path fill="none" stroke="#383853" stroke-linecap="round" stroke-linejoin="round" stroke-width="10" d="M242.08 174.49c15.95-35.2 50.78-59.97 91.75-60.2 56.41-.32 102.24 45.32 102.24 101.66 0 68.02-27.73 126.97-72.47 168.93-44.73 41.95-106.18 72.76-174.48 66.9-28.72-2.47-52.19-23.36-52.19-52.2 0-6.68 1.26-13.08 3.56-18.96"/><path fill="none" stroke="#71BBE8" stroke-linecap="round" stroke-linejoin="round" stroke-width="10" d="m92.5 314.17 2.8-13.2c3.03-14.35 14.26-24.45 27.17-24.45h6.92"/><path fill="#383853" d="M82.76 337.94a11.6 11.6 0 1 1-23.2 0 11.6 11.6 0 0 1 23.2 0"/><path fill="#71BBE8" d="M127.26 87.7h-30.5a23.63 23.63 0 0 0-23.6 23.6v32.55c0 8.33 4.46 16.13 11.65 20.35l46.98 27.6a5 5 0 0 1-5.07 8.62l-46.98-27.6a33.7 33.7 0 0 1-16.58-28.97V111.3a33.64 33.64 0 0 1 33.6-33.6h30.5z"/><path fill="none" stroke="#71BBE8" stroke-linecap="round" stroke-linejoin="round" stroke-width="10" d="M135.07 143.95h6.27c6.38 0 12.5-2.51 17.04-6.99l33.44-32.99"/></g></g></svg>